HIERARCHY
ROOT Hips
{
	OFFSET -0.001795 -0.223333 0.028219
	CHANNELS 6 Xposition Yposition Zposition Zrotation Yrotation Xrotation 
	JOINT LeftUpLeg
	{
		OFFSET 0.069520 -0.091406 -0.006815
		CHANNELS 3 Zrotation Yrotation Xrotation
		JOINT LeftLeg
		{
			OFFSET 0.034277 -0.375199 -0.004496
			CHANNELS 3 Zrotation Yrotation Xrotation
			JOINT LeftFoot
			{
				OFFSET -0.013596 -0.397961 -0.043693
				CHANNELS 3 Zrotation Yrotation Xrotation
				JOINT LeftToe
				{
					OFFSET 0.026358 -0.055791 0.119288
					CHANNELS 3 Zrotation Yrotation Xrotation
					End Site
					{
						OFFSET 0.000000 0.000000 0.000000
					}
				}
			}
		}
	}
	JOINT RightUpLeg
	{
		OFFSET -0.067670 -0.090522 -0.004320
		CHANNELS 3 Zrotation Yrotation Xrotation
		JOINT RightLeg
		{
			OFFSET -0.038290 -0.382569 -0.008850
			CHANNELS 3 Zrotation Yrotation Xrotation
			JOINT RightFoot
			{
				OFFSET 0.015774 -0.398415 -0.042312
				CHANNELS 3 Zrotation Yrotation Xrotation
				JOINT RightToe
				{
					OFFSET -0.025372 -0.048144 0.123348
					CHANNELS 3 Zrotation Yrotation Xrotation
					End Site
					{
						OFFSET 0.000000 0.000000 0.000000
					}
				}
			}
		}
	}
	JOINT Spine
	{
		OFFSET -0.002533 0.108963 -0.026696
		CHANNELS 3 Zrotation Yrotation Xrotation
		JOINT Spine1
		{
			OFFSET 0.005487 0.135180 0.001092
			CHANNELS 3 Zrotation Yrotation Xrotation
			JOINT Spine2
			{
				OFFSET 0.001457 0.052922 0.025425
				CHANNELS 3 Zrotation Yrotation Xrotation
				JOINT Neck
				{
					OFFSET -0.002778 0.213870 -0.042857
					CHANNELS 3 Zrotation Yrotation Xrotation
					JOINT Head
					{
						OFFSET 0.005152 0.064970 0.051349
						CHANNELS 3 Zrotation Yrotation Xrotation
						End Site
						{
							OFFSET 0.000000 0.000000 0.000000
						}
					}
				}
				JOINT LeftShoulder
				{
					OFFSET 0.078845 0.121749 -0.034090
					CHANNELS 3 Zrotation Yrotation Xrotation
					JOINT LeftArm
					{
						OFFSET 0.090977 0.030469 -0.008868
						CHANNELS 3 Zrotation Yrotation Xrotation
						JOINT LeftForeArm
						{
							OFFSET 0.259612 -0.012772 -0.027456
							CHANNELS 3 Zrotation Yrotation Xrotation
							JOINT LeftHand
							{
								OFFSET 0.249234 0.008986 -0.001171
								CHANNELS 3 Zrotation Yrotation Xrotation
								End Site
								{
									OFFSET 0.000000 0.000000 0.000000
								}
							}
						}
					}
				}
				JOINT RightShoulder
				{
					OFFSET -0.081759 0.118833 -0.038615
					CHANNELS 3 Zrotation Yrotation Xrotation
					JOINT RightArm
					{
						OFFSET -0.096012 0.032551 -0.009143
						CHANNELS 3 Zrotation Yrotation Xrotation
						JOINT RightForeArm
						{
							OFFSET -0.253742 -0.013329 -0.021401
							CHANNELS 3 Zrotation Yrotation Xrotation
							JOINT RightHand
							{
								OFFSET -0.255298 0.007772 -0.005559
								CHANNELS 3 Zrotation Yrotation Xrotation
								End Site
								{
									OFFSET 0.000000 0.000000 0.000000
								}
							}
						}
					}
				}
			}
		}
	}
}
MOTION
Frames: 7
Frame Time: 0.050000
-0.057229 0.853739 -0.067197 -3.732551 19.408331 1.740838 2.350964 -7.067207 -45.283917 8.242890 -12.601891 53.567435 -10.505401 -16.941289 7.518016 0.000000 0.000000 0.000000 5.151108 2.753998 -30.752274 5.204188 -5.905849 46.618487 -22.147019 -45.954545 6.078681 0.000000 0.000000 0.000000 -7.831330 -1.186568 32.738031 -13.639114 6.156914 3.158859 -1.919260 14.056074 6.500534 0.804276 3.720406 -22.956696 0.000000 0.000000 0.000000 -21.442909 -7.937723 -4.868859 -58.536716 -12.485596 0.659489 92.845160 -40.890287 -50.692770 0.000000 0.000000 0.000000 6.479514 12.153211 7.065220 61.516175 11.495353 1.705181 -52.621724 46.341302 -15.171402 0.000000 0.000000 0.000000 
-0.062582 0.851655 -0.069513 -3.712279 20.514406 2.275026 2.781559 -7.534753 -46.957350 7.779036 -12.702436 54.340450 -11.032325 -17.072849 8.612985 0.000000 0.000000 0.000000 5.324409 2.720022 -32.069366 5.314069 -6.493394 47.989001 -21.804778 -45.882797 5.131678 0.000000 0.000000 0.000000 -7.797975 -1.338590 33.027335 -13.886762 6.167718 2.343955 -1.611475 13.337034 7.012092 0.440493 4.002032 -24.222413 0.000000 0.000000 0.000000 -20.872789 -7.675299 -4.737563 -58.298935 -13.203902 0.881504 92.991196 -38.580451 -48.408244 0.000000 0.000000 0.000000 4.188203 12.228367 6.413048 62.669045 10.864417 1.825770 -52.554903 45.178373 -14.577558 0.000000 0.000000 0.000000 
-0.066604 0.852199 -0.071200 -3.664192 21.365470 2.784141 3.164304 -7.770586 -47.782893 7.525835 -12.583196 54.047657 -11.434800 -17.342613 9.256243 0.000000 0.000000 0.000000 5.699133 2.740467 -32.999552 4.894737 -6.638329 49.064011 -21.023725 -45.039660 4.212522 0.000000 0.000000 0.000000 -7.972038 -1.398771 33.234084 -14.084553 6.184074 1.926210 -1.294152 12.740097 7.122489 -0.403294 4.415348 -24.747849 0.000000 0.000000 0.000000 -19.688418 -7.364303 -4.407891 -58.645891 -14.062159 1.054839 92.905240 -35.664611 -45.427728 0.000000 0.000000 0.000000 3.325661 12.231724 6.157770 63.254639 9.672673 1.314041 -53.018040 43.699280 -14.051979 0.000000 0.000000 0.000000 
-0.069673 0.852604 -0.072109 -3.772189 22.108311 2.713728 3.118359 -7.940365 -47.758849 7.919347 -12.891577 53.538398 -11.725805 -17.790874 9.425021 0.000000 0.000000 0.000000 5.859600 2.704915 -33.299936 5.065395 -7.147391 49.902871 -20.637737 -44.627606 3.673748 0.000000 0.000000 0.000000 -7.909083 -1.549005 33.677854 -14.816220 6.472876 2.121652 -0.933509 11.921449 6.474610 -1.319309 4.766792 -25.049926 0.000000 0.000000 0.000000 -18.818743 -7.218801 -3.960995 -58.026730 -15.597990 1.713970 92.600565 -32.875120 -42.227595 0.000000 0.000000 0.000000 2.880045 11.565063 5.676802 63.693684 7.727317 0.280589 -52.060304 43.304533 -13.598367 0.000000 0.000000 0.000000 
-0.072609 0.851655 -0.072686 -3.903891 22.629952 2.690401 3.557831 -7.965345 -48.088811 7.620980 -12.807756 53.586363 -11.886612 -18.096973 9.485284 0.000000 0.000000 0.000000 5.972463 2.678411 -33.611076 5.118994 -7.662385 51.331456 -19.087633 -43.114630 1.330098 0.000000 0.000000 0.000000 -7.805533 -1.706090 34.214452 -15.401561 6.684092 1.850240 -0.580266 11.698967 6.709458 -1.952497 5.077788 -25.538815 0.000000 0.000000 0.000000 -17.623471 -7.733470 -3.290876 -57.200011 -18.085095 2.745713 91.378538 -29.517226 -38.219378 0.000000 0.000000 0.000000 2.003011 11.267266 5.298812 65.305798 6.197453 -0.305560 -51.498945 42.420351 -13.003961 0.000000 0.000000 0.000000 
-0.076148 0.849568 -0.073648 -3.771571 23.426738 3.035141 3.171631 -8.381690 -48.408140 8.369078 -13.336362 53.089538 -11.897427 -18.644647 9.023120 0.000000 0.000000 0.000000 5.349665 2.404485 -33.597208 5.809065 -8.508093 51.698127 -17.248057 -41.660966 -2.444767 0.000000 0.000000 0.000000 -8.158220 -1.728025 34.497570 -15.862171 6.863868 2.452059 -0.415340 11.854883 6.450901 -2.660436 5.487056 -27.171764 0.000000 0.000000 0.000000 -16.622276 -9.388805 -2.303089 -55.862343 -20.921040 4.008265 89.950711 -25.292569 -33.642875 0.000000 0.000000 0.000000 1.030072 11.350074 5.108374 67.059503 5.009793 -0.630776 -51.592654 40.276669 -12.054205 0.000000 0.000000 0.000000 
-0.080547 0.848445 -0.074997 -3.986556 23.348318 3.252618 3.771246 -8.367818 -49.295375 8.259765 -13.330504 53.578532 -12.081590 -18.411563 9.670342 0.000000 0.000000 0.000000 5.401469 2.427436 -33.763957 6.443930 -8.825221 51.344236 -16.623987 -41.261671 -3.975986 0.000000 0.000000 0.000000 -9.046206 -1.571328 35.438672 -16.062159 6.878777 1.116006 0.121392 12.258015 7.769121 -3.478789 5.975683 -28.956367 0.000000 0.000000 0.000000 -16.507082 -10.731171 -1.705430 -53.997743 -23.645739 5.060760 88.130910 -20.833769 -28.502556 0.000000 0.000000 0.000000 -0.069719 12.635561 5.356636 68.603999 5.384403 -0.165938 -51.201685 37.781302 -10.878513 0.000000 0.000000 0.000000 
